<mxfile host="app.diagrams.net" modified="2023-10-24T03:41:05.973Z" agent="Mozilla/5.0 (Macintosh; Intel Mac OS X 10_15_7) AppleWebKit/605.1.15 (KHTML, like Gecko) Version/16.6 Safari/605.1.15" version="22.0.6" etag="rZQxMHKR8a9mS5iKdXi1" type="github">
  <diagram name="第 1 页" id="hGScBP1jAvFB0Sup7Ob4">
    <mxGraphModel>
      <root>
        <mxCell id="0" />
        <mxCell id="1" parent="0" />
      </root>
    </mxGraphModel>
  </diagram>
</mxfile>
